<svg xmlns="http://www.w3.org/2000/svg" viewBox="0 0 512 112" fill="none" shape-rendering="crispEdges">
<path fill="#1e7ec2" d="M292 80H303V81H292ZM292 81H303V82H292ZM292 82H303V83H292ZM137 83H150V84H137ZM285 83H298V84H285ZM303 83H308V84H303ZM137 84H150V85H137ZM285 84H298V85H285ZM303 84H308V85H303ZM132 85H155V86H132ZM282 85H289V86H282ZM298 85H310V86H298ZM384 85H407V86H384ZM132 86H155V87H132ZM282 86H289V87H282ZM298 86H310V87H298ZM384 86H407V87H384ZM132 87H155V88H132ZM282 87H289V88H282ZM298 87H310V88H298ZM384 87H407V88H384ZM119 88H134V89H119ZM139 88H148V89H139ZM270 88H284V89H270ZM294 88H303V89H294ZM371 88H386V89H371ZM391 88H401V89H391ZM119 89H134V90H119ZM139 89H148V90H139ZM270 89H284V90H270ZM294 89H303V90H294ZM371 89H386V90H371ZM391 89H401V90H391ZM112 90H119V91H112ZM134 90H150V91H134ZM215 90H220V91H215ZM262 90H274V91H262ZM289 90H303V91H289ZM364 90H374V91H364ZM386 90H402V91H386ZM465 90H485V91H465ZM112 91H119V92H112ZM134 91H150V92H134ZM215 91H220V92H215ZM262 91H274V92H262ZM289 91H303V92H289ZM364 91H374V92H364ZM386 91H402V92H386ZM465 91H485V92H465ZM112 92H119V93H112ZM134 92H150V93H134ZM215 92H220V93H215ZM262 92H274V93H262ZM289 92H303V93H289ZM364 92H374V93H364ZM386 92H402V93H386ZM465 92H485V93H465ZM104 93H112V94H104ZM129 93H139V94H129ZM146 93H153V94H146ZM208 93H220V94H208ZM254 93H267V94H254ZM287 93H292V94H287ZM298 93H307V94H298ZM356 93H364V94H356ZM381 93H391V94H381ZM398 93H405V94H398ZM454 93H472V94H454ZM476 93H487V94H476ZM491 93H495V94H491ZM104 94H112V95H104ZM129 94H139V95H129ZM146 94H153V95H146ZM208 94H220V95H208ZM254 94H267V95H254ZM287 94H292V95H287ZM298 94H307V95H298ZM356 94H364V95H356ZM381 94H391V95H381ZM398 94H405V95H398ZM454 94H472V95H454ZM476 94H487V95H476ZM491 94H495V95H491ZM90 95H104V96H90ZM129 95H137V96H129ZM149 95H160V96H149ZM194 95H212V96H194ZM215 95H228V96H215ZM249 95H259V96H249ZM287 95H297V96H287ZM301 95H308V96H301ZM341 95H356V96H341ZM382 95H389V96H382ZM401 95H412V96H401ZM447 95H465V96H447ZM480 95H488V96H480ZM493 95H500V96H493ZM90 96H104V97H90ZM129 96H137V97H129ZM139 96H145V97H139ZM149 96H160V97H149ZM194 96H212V97H194ZM215 96H228V97H215ZM249 96H259V97H249ZM287 96H297V97H287ZM301 96H317V97H301ZM341 96H356V97H341ZM382 96H389V97H382ZM391 96H397V97H391ZM401 96H412V97H401ZM447 96H465V97H447ZM480 96H490V97H480ZM493 96H500V97H493ZM90 97H104V98H90ZM129 97H137V98H129ZM139 97H145V98H139ZM149 97H160V98H149ZM194 97H212V98H194ZM215 97H228V98H215ZM249 97H259V98H249ZM287 97H297V98H287ZM301 97H317V98H301ZM341 97H356V98H341ZM382 97H389V98H382ZM391 97H397V98H391ZM401 97H412V98H401ZM447 97H465V98H447ZM480 97H490V98H480ZM493 97H500V98H493ZM77 98H97V99H77ZM137 98H194V99H137ZM220 98H254V99H220ZM294 98H349V99H294ZM389 98H454V99H389ZM495 98H500V99H495ZM77 99H97V100H77ZM137 99H194V100H137ZM220 99H254V100H220ZM294 99H349V100H294ZM389 99H454V100H389ZM495 99H500V100H495ZM77 100H97V101H77ZM137 100H194V101H137ZM220 100H254V101H220ZM294 100H349V101H294ZM389 100H454V101H389ZM495 100H500V101H495Z"/>
<path fill="#58935b" d="M49 21H70V22H49ZM162 21H167V22H162ZM49 22H70V23H49ZM162 22H167V23H162ZM49 23H70V24H49ZM160 23H167V24H160ZM49 24H70V25H49ZM160 24H167V25H160ZM475 24H476V25H475ZM49 25H70V26H49ZM160 25H167V26H160ZM475 25H476V26H475ZM49 26H70V27H49ZM162 26H167V27H162ZM49 27H70V28H49ZM126 27H128V28H126ZM140 27H141V28H140ZM162 27H167V28H162ZM56 28H63V29H56ZM84 28H91V29H84ZM121 28H146V29H121ZM321 28H324V29H321ZM35 29H41V30H35ZM56 29H63V30H56ZM84 29H91V30H84ZM121 29H143V30H121ZM321 29H324V30H321ZM35 30H41V31H35ZM56 30H63V31H56ZM84 30H91V31H84ZM118 30H143V31H118ZM321 30H322V31H321ZM35 31H41V32H35ZM56 31H63V32H56ZM84 31H91V32H84ZM118 31H143V32H118ZM35 32H41V33H35ZM56 32H63V33H56ZM84 32H91V33H84ZM116 32H143V33H116ZM35 33H41V34H35ZM56 33H63V34H56ZM84 33H91V34H84ZM115 33H119V34H115ZM125 33H141V34H125ZM35 34H41V35H35ZM56 34H63V35H56ZM84 34H91V35H84ZM115 34H119V35H115ZM125 34H128V35H125ZM28 35H42V36H28ZM84 35H97V36H84ZM125 35H128V36H125ZM228 35H231V36H228ZM381 35H382V36H381ZM28 36H55V37H28ZM77 36H97V37H77ZM125 36H128V37H125ZM28 37H55V38H28ZM77 37H97V38H77ZM125 37H128V38H125ZM28 38H55V39H28ZM77 38H97V39H77ZM125 38H128V39H125ZM28 39H55V40H28ZM77 39H97V40H77ZM125 39H128V40H125ZM28 40H55V41H28ZM77 40H97V41H77ZM123 40H128V41H123ZM28 41H55V42H28ZM77 41H97V42H77ZM123 41H128V42H123ZM28 42H48V43H28ZM70 42H77V43H70ZM91 42H97V43H91ZM121 42H128V43H121ZM28 43H48V44H28ZM70 43H77V44H70ZM91 43H97V44H91ZM121 43H128V44H121ZM28 44H48V45H28ZM70 44H77V45H70ZM91 44H97V45H91ZM121 44H128V45H121ZM28 45H48V46H28ZM70 45H77V46H70ZM91 45H97V46H91ZM121 45H128V46H121ZM28 46H48V47H28ZM70 46H77V47H70ZM91 46H97V47H91ZM121 46H128V47H121ZM28 47H48V48H28ZM70 47H77V48H70ZM91 47H97V48H91ZM123 47H128V48H123ZM28 48H48V49H28ZM70 48H77V49H70ZM91 48H97V49H91ZM123 48H128V49H123ZM28 49H34V50H28ZM70 49H97V50H70ZM123 49H133V50H123ZM455 49H456V50H455ZM28 50H34V51H28ZM70 50H97V51H70ZM125 50H131V51H125ZM28 51H34V52H28ZM70 51H97V52H70ZM125 51H131V52H125ZM28 52H34V53H28ZM70 52H97V53H70ZM127 52H131V53H127ZM133 52H134V53H133ZM28 53H34V54H28ZM70 53H97V54H70ZM127 53H131V54H127ZM133 53H134V54H133ZM138 53H141V54H138ZM28 54H34V55H28ZM70 54H97V55H70ZM128 54H134V55H128ZM28 55H34V56H28ZM70 55H97V56H70ZM128 55H134V56H128ZM35 56H41V57H35ZM70 56H97V57H70ZM133 56H136V57H133ZM35 57H41V58H35ZM70 57H97V58H70ZM135 57H138V58H135ZM35 58H41V59H35ZM70 58H97V59H70ZM135 58H138V59H135ZM35 59H41V60H35ZM70 59H97V60H70ZM464 59H467V60H464ZM35 60H41V61H35ZM70 60H97V61H70ZM35 61H41V62H35ZM70 61H97V62H70ZM448 61H450V62H448ZM459 61H461V62H459ZM35 62H41V63H35ZM70 62H97V63H70ZM448 62H450V63H448ZM42 63H56V64H42ZM84 63H97V64H84ZM445 63H446V64H445ZM448 63H451V64H448ZM42 64H56V65H42ZM84 64H97V65H84ZM448 64H450V65H448ZM42 65H56V66H42ZM84 65H97V66H84ZM447 65H450V66H447ZM42 66H56V67H42ZM84 66H97V67H84ZM447 66H451V67H447ZM42 67H56V68H42ZM84 67H97V68H84ZM447 67H451V68H447ZM42 68H56V69H42ZM84 68H97V69H84ZM248 68H249V69H248ZM448 68H452V69H448ZM42 69H56V70H42ZM84 69H97V70H84ZM248 69H249V70H248ZM450 69H452V70H450ZM42 70H62V71H42ZM84 70H90V71H84ZM248 70H251V71H248ZM450 70H452V71H450ZM42 71H63V72H42ZM84 71H90V72H84ZM248 71H251V72H248ZM42 72H63V73H42ZM84 72H90V73H84ZM248 72H251V73H248ZM42 73H63V74H42ZM84 73H90V74H84ZM248 73H249V74H248ZM42 74H63V75H42ZM84 74H90V75H84ZM248 74H249V75H248ZM42 75H63V76H42ZM84 75H90V76H84ZM248 75H249V76H248ZM355 75H358V76H355ZM42 76H63V77H42ZM85 76H90V77H85ZM349 76H350V77H349ZM49 77H63V78H49ZM353 77H354V78H353ZM49 78H63V79H49ZM353 78H354V79H353ZM49 79H63V80H49ZM353 79H354V80H353ZM49 80H63V81H49ZM353 80H354V81H353ZM49 81H63V82H49ZM49 82H63V83H49ZM49 83H63V84H49ZM49 84H56V85H49ZM493 84H494V85H493ZM49 85H56V86H49ZM49 86H56V87H49ZM49 87H56V88H49ZM49 88H56V89H49ZM49 89H56V90H49ZM49 90H56V91H49Z"/>
<path fill="#213a67" d="M49 15H77V16H49ZM49 16H77V17H49ZM49 17H77V18H49ZM49 18H77V19H49ZM49 19H77V20H49ZM49 20H77V21H49ZM90 21H91V22H90ZM322 21H323V22H322ZM35 22H48V23H35ZM77 22H91V23H77ZM322 22H323V23H322ZM35 23H48V24H35ZM77 23H91V24H77ZM322 23H323V24H322ZM35 24H48V25H35ZM77 24H91V25H77ZM322 24H323V25H322ZM35 25H48V26H35ZM77 25H91V26H77ZM322 25H323V26H322ZM35 26H48V27H35ZM77 26H91V27H77ZM322 26H323V27H322ZM35 27H48V28H35ZM77 27H91V28H77ZM322 27H323V28H322ZM28 29H34V30H28ZM91 29H97V30H91ZM28 30H34V31H28ZM91 30H97V31H91ZM28 31H34V32H28ZM91 31H97V32H91ZM28 32H34V33H28ZM91 32H97V33H91ZM28 33H34V34H28ZM91 33H97V34H91ZM227 33H228V34H227ZM28 34H34V35H28ZM91 34H97V35H91ZM97 35H104V36H97ZM21 36H28V37H21ZM97 36H104V37H97ZM21 37H28V38H21ZM97 37H104V38H97ZM21 38H28V39H21ZM97 38H104V39H97ZM21 39H28V40H21ZM97 39H104V40H97ZM21 40H28V41H21ZM97 40H104V41H97ZM21 41H28V42H21ZM97 41H104V42H97ZM21 42H28V43H21ZM97 42H104V43H97ZM21 43H28V44H21ZM97 43H104V44H97ZM21 44H28V45H21ZM97 44H104V45H97ZM21 45H28V46H21ZM97 45H104V46H97ZM21 46H28V47H21ZM97 46H104V47H97ZM21 47H28V48H21ZM97 47H104V48H97ZM189 47H191V48H189ZM21 48H28V49H21ZM97 48H104V49H97ZM21 49H28V50H21ZM97 49H104V50H97ZM21 50H28V51H21ZM97 50H104V51H97ZM21 51H28V52H21ZM97 51H104V52H97ZM476 51H477V52H476ZM21 52H28V53H21ZM97 52H104V53H97ZM251 52H252V53H251ZM21 53H28V54H21ZM97 53H104V54H97ZM251 53H252V54H251ZM21 54H28V55H21ZM97 54H104V55H97ZM21 55H28V56H21ZM97 55H104V56H97ZM21 56H28V57H21ZM97 56H104V57H97ZM21 57H28V58H21ZM97 57H104V58H97ZM21 58H28V59H21ZM97 58H104V59H97ZM21 59H28V60H21ZM97 59H104V60H97ZM21 60H28V61H21ZM97 60H104V61H97ZM21 61H28V62H21ZM97 61H104V62H97ZM21 62H28V63H21ZM97 62H104V63H97ZM21 63H28V64H21ZM97 63H104V64H97ZM21 64H28V65H21ZM97 64H104V65H97ZM21 65H28V66H21ZM97 65H104V66H97ZM21 66H28V67H21ZM97 66H104V67H97ZM21 67H28V68H21ZM97 67H104V68H97ZM21 68H28V69H21ZM97 68H104V69H97ZM21 69H28V70H21ZM97 69H104V70H97ZM21 70H28V71H21ZM97 70H104V71H97ZM21 71H28V72H21ZM97 71H104V72H97ZM21 72H28V73H21ZM97 72H104V73H97ZM21 73H28V74H21ZM97 73H104V74H97ZM21 74H28V75H21ZM97 74H104V75H97ZM21 75H28V76H21ZM97 75H104V76H97ZM97 76H104V77H97ZM28 77H35V78H28ZM91 77H98V78H91ZM28 78H35V79H28ZM91 78H98V79H91ZM28 79H35V80H28ZM91 79H98V80H91ZM28 80H35V81H28ZM91 80H98V81H91ZM28 81H35V82H28ZM91 81H98V82H91ZM28 82H35V83H28ZM91 82H98V83H91ZM34 83H35V84H34ZM91 83H98V84H91ZM35 84H49V85H35ZM77 84H91V85H77ZM35 85H49V86H35ZM77 85H91V86H77ZM35 86H49V87H35ZM77 86H91V87H77ZM35 87H49V88H35ZM77 87H91V88H77ZM35 88H49V89H35ZM77 88H91V89H77ZM35 89H49V90H35ZM77 89H91V90H77ZM35 90H49V91H35ZM77 90H91V91H77ZM49 91H76V92H49ZM49 92H76V93H49ZM49 93H76V94H49ZM49 94H76V95H49ZM49 95H76V96H49ZM49 96H76V97H49ZM49 97H77V98H49Z"/>
<path fill="#165397" d="M115 21H161V22H115ZM215 21H221V22H215ZM269 21H297V22H269ZM323 21H326V22H323ZM115 22H161V23H115ZM215 22H221V23H215ZM267 22H297V23H267ZM323 22H326V23H323ZM115 23H160V24H115ZM211 23H221V24H211ZM261 23H263V24H261ZM266 23H283V24H266ZM287 23H297V24H287ZM323 23H326V24H323ZM115 24H160V25H115ZM211 24H221V25H211ZM261 24H263V25H261ZM265 24H283V25H265ZM287 24H297V25H287ZM323 24H326V25H323ZM115 25H160V26H115ZM209 25H218V26H209ZM261 25H281V26H261ZM290 25H297V26H290ZM323 25H330V26H323ZM115 26H126V27H115ZM128 26H139V27H128ZM141 26H160V27H141ZM209 26H218V27H209ZM261 26H278V27H261ZM292 26H293V27H292ZM295 26H297V27H295ZM323 26H329V27H323ZM115 27H126V28H115ZM128 27H139V28H128ZM141 27H161V28H141ZM209 27H218V28H209ZM261 27H278V28H261ZM292 27H293V28H292ZM295 27H297V28H295ZM323 27H329V28H323ZM115 28H121V29H115ZM147 28H167V29H147ZM211 28H218V29H211ZM255 28H280V29H255ZM294 28H297V29H294ZM316 28H317V29H316ZM319 28H320V29H319ZM324 28H327V29H324ZM115 29H118V30H115ZM147 29H150V30H147ZM153 29H167V30H153ZM214 29H216V30H214ZM255 29H280V30H255ZM294 29H297V30H294ZM316 29H317V30H316ZM319 29H320V30H319ZM115 30H118V31H115ZM143 30H149V31H143ZM154 30H167V31H154ZM215 30H216V31H215ZM255 30H297V31H255ZM316 30H320V31H316ZM115 31H116V32H115ZM143 31H148V32H143ZM155 31H167V32H155ZM215 31H216V32H215ZM255 31H297V32H255ZM316 31H321V32H316ZM115 32H116V33H115ZM143 32H148V33H143ZM155 32H167V33H155ZM215 32H216V33H215ZM255 32H297V33H255ZM316 32H322V33H316ZM120 33H124V34H120ZM142 33H146V34H142ZM157 33H167V34H157ZM223 33H227V34H223ZM255 33H297V34H255ZM316 33H320V34H316ZM120 34H124V35H120ZM223 34H228V35H223ZM255 34H261V35H255ZM316 34H320V35H316ZM115 35H124V36H115ZM182 35H185V36H182ZM225 35H228V36H225ZM232 35H233V36H232ZM248 35H261V36H248ZM309 35H322V36H309ZM115 36H124V37H115ZM182 36H184V37H182ZM227 36H233V37H227ZM248 36H261V37H248ZM309 36H317V37H309ZM115 37H124V38H115ZM182 37H184V38H182ZM227 37H233V38H227ZM248 37H261V38H248ZM309 37H317V38H309ZM115 38H124V39H115ZM182 38H184V39H182ZM221 38H233V39H221ZM248 38H261V39H248ZM309 38H317V39H309ZM115 39H124V40H115ZM182 39H184V40H182ZM221 39H233V40H221ZM248 39H261V40H248ZM309 39H317V40H309ZM115 40H123V41H115ZM182 40H184V41H182ZM221 40H233V41H221ZM248 40H261V41H248ZM309 40H317V41H309ZM115 41H123V42H115ZM182 41H184V42H182ZM221 41H233V42H221ZM248 41H261V42H248ZM309 41H317V42H309ZM115 42H121V43H115ZM182 42H185V43H182ZM221 42H233V43H221ZM248 42H261V43H248ZM309 42H322V43H309ZM115 43H121V44H115ZM182 43H186V44H182ZM221 43H233V44H221ZM248 43H261V44H248ZM309 43H317V44H309ZM115 44H121V45H115ZM182 44H186V45H182ZM221 44H233V45H221ZM248 44H261V45H248ZM309 44H317V45H309ZM115 45H121V46H115ZM182 45H186V46H182ZM221 45H233V46H221ZM248 45H261V46H248ZM309 45H316V46H309ZM115 46H121V47H115ZM182 46H187V47H182ZM221 46H233V47H221ZM248 46H261V47H248ZM309 46H316V47H309ZM414 46H419V47H414ZM115 47H121V48H115ZM182 47H187V48H182ZM221 47H233V48H221ZM248 47H261V48H248ZM309 47H314V48H309ZM414 47H420V48H414ZM115 48H123V49H115ZM182 48H187V49H182ZM221 48H233V49H221ZM248 48H261V49H248ZM309 48H312V49H309ZM414 48H420V49H414ZM115 49H123V50H115ZM133 49H136V50H133ZM138 49H156V50H138ZM182 49H189V50H182ZM191 49H192V50H191ZM221 49H233V50H221ZM248 49H261V50H248ZM309 49H312V50H309ZM414 49H422V50H414ZM442 49H443V50H442ZM115 50H123V51H115ZM131 50H136V51H131ZM138 50H156V51H138ZM182 50H189V51H182ZM191 50H192V51H191ZM221 50H233V51H221ZM248 50H253V51H248ZM258 50H261V51H258ZM309 50H312V51H309ZM414 50H422V51H414ZM442 50H443V51H442ZM115 51H124V52H115ZM131 51H156V52H131ZM182 51H189V52H182ZM191 51H192V52H191ZM221 51H233V52H221ZM248 51H253V52H248ZM258 51H261V52H258ZM309 51H312V52H309ZM414 51H422V52H414ZM442 51H443V52H442ZM115 52H125V53H115ZM131 52H133V53H131ZM135 52H138V53H135ZM141 52H156V53H141ZM182 52H189V53H182ZM191 52H194V53H191ZM222 52H233V53H222ZM248 52H251V53H248ZM257 52H261V53H257ZM309 52H312V53H309ZM414 52H423V53H414ZM442 52H443V53H442ZM115 53H126V54H115ZM131 53H133V54H131ZM135 53H138V54H135ZM141 53H156V54H141ZM182 53H194V54H182ZM222 53H233V54H222ZM248 53H251V54H248ZM257 53H261V54H257ZM309 53H312V54H309ZM414 53H424V54H414ZM442 53H445V54H442ZM115 54H128V55H115ZM135 54H156V55H135ZM182 54H194V55H182ZM222 54H233V55H222ZM248 54H261V55H248ZM309 54H312V55H309ZM414 54H424V55H414ZM442 54H446V55H442ZM115 55H128V56H115ZM136 55H156V56H136ZM182 55H194V56H182ZM222 55H233V56H222ZM248 55H261V56H248ZM309 55H312V56H309ZM374 55H376V56H374ZM414 55H424V56H414ZM442 55H446V56H442ZM115 56H133V57H115ZM136 56H156V57H136ZM182 56H194V57H182ZM222 56H233V57H222ZM248 56H261V57H248ZM309 56H312V57H309ZM358 56H360V57H358ZM374 56H376V57H374ZM414 56H425V57H414ZM442 56H446V57H442ZM115 57H133V58H115ZM138 57H139V58H138ZM147 57H156V58H147ZM182 57H194V58H182ZM222 57H233V58H222ZM248 57H261V58H248ZM309 57H312V58H309ZM353 57H360V58H353ZM374 57H376V58H374ZM414 57H425V58H414ZM442 57H446V58H442ZM115 58H134V59H115ZM138 58H139V59H138ZM147 58H156V59H147ZM182 58H194V59H182ZM222 58H233V59H222ZM248 58H261V59H248ZM309 58H312V59H309ZM353 58H360V59H353ZM374 58H378V59H374ZM414 58H425V59H414ZM442 58H446V59H442ZM115 59H138V60H115ZM150 59H156V60H150ZM182 59H194V60H182ZM225 59H233V60H225ZM248 59H261V60H248ZM309 59H314V60H309ZM358 59H360V60H358ZM374 59H378V60H374ZM414 59H427V60H414ZM442 59H446V60H442ZM115 60H138V61H115ZM152 60H156V61H152ZM182 60H194V61H182ZM228 60H233V61H228ZM248 60H261V61H248ZM309 60H314V61H309ZM358 60H360V61H358ZM374 60H378V61H374ZM414 60H427V61H414ZM442 60H446V61H442ZM115 61H136V62H115ZM152 61H156V62H152ZM182 61H194V62H182ZM228 61H233V62H228ZM248 61H261V62H248ZM309 61H316V62H309ZM358 61H360V62H358ZM374 61H379V62H374ZM384 61H387V62H384ZM414 61H427V62H414ZM442 61H448V62H442ZM115 62H128V63H115ZM182 62H194V63H182ZM232 62H233V63H232ZM248 62H261V63H248ZM309 62H316V63H309ZM358 62H360V63H358ZM374 62H379V63H374ZM384 62H387V63H384ZM414 62H427V63H414ZM442 62H445V63H442ZM446 62H448V63H446ZM115 63H128V64H115ZM182 63H194V64H182ZM232 63H233V64H232ZM248 63H261V64H248ZM309 63H322V64H309ZM357 63H360V64H357ZM374 63H387V64H374ZM414 63H427V64H414ZM442 63H445V64H442ZM446 63H448V64H446ZM115 64H118V65H115ZM123 64H128V65H123ZM182 64H194V65H182ZM248 64H261V65H248ZM309 64H322V65H309ZM357 64H360V65H357ZM374 64H387V65H374ZM414 64H427V65H414ZM442 64H445V65H442ZM115 65H118V66H115ZM123 65H128V66H123ZM182 65H194V66H182ZM248 65H261V66H248ZM309 65H322V66H309ZM355 65H360V66H355ZM374 65H387V66H374ZM414 65H427V66H414ZM442 65H446V66H442ZM115 66H116V67H115ZM125 66H128V67H125ZM182 66H194V67H182ZM248 66H261V67H248ZM309 66H322V67H309ZM353 66H360V67H353ZM374 66H387V67H374ZM414 66H427V67H414ZM442 66H446V67H442ZM115 67H116V68H115ZM125 67H128V68H125ZM182 67H194V68H182ZM249 67H261V68H249ZM309 67H322V68H309ZM353 67H360V68H353ZM374 67H387V68H374ZM414 67H427V68H414ZM442 67H446V68H442ZM123 68H125V69H123ZM126 68H128V69H126ZM182 68H194V69H182ZM250 68H261V69H250ZM309 68H322V69H309ZM351 68H360V69H351ZM374 68H387V69H374ZM414 68H427V69H414ZM442 68H448V69H442ZM123 69H125V70H123ZM126 69H128V70H126ZM182 69H194V70H182ZM252 69H261V70H252ZM309 69H322V70H309ZM351 69H360V70H351ZM374 69H387V70H374ZM414 69H427V70H414ZM442 69H448V70H442ZM115 70H128V71H115ZM182 70H194V71H182ZM252 70H261V71H252ZM309 70H322V71H309ZM351 70H360V71H351ZM374 70H387V71H374ZM414 70H427V71H414ZM442 70H449V71H442ZM115 71H128V72H115ZM182 71H194V72H182ZM252 71H261V72H252ZM309 71H322V72H309ZM351 71H360V72H351ZM374 71H387V72H374ZM414 71H427V72H414ZM442 71H453V72H442ZM115 72H128V73H115ZM182 72H194V73H182ZM252 72H261V73H252ZM309 72H322V73H309ZM351 72H360V73H351ZM374 72H387V73H374ZM414 72H427V73H414ZM442 72H453V73H442ZM115 73H128V74H115ZM182 73H194V74H182ZM250 73H261V74H250ZM309 73H322V74H309ZM351 73H360V74H351ZM374 73H387V74H374ZM414 73H427V74H414ZM442 73H455V74H442ZM115 74H128V75H115ZM182 74H194V75H182ZM250 74H261V75H250ZM309 74H322V75H309ZM351 74H356V75H351ZM358 74H360V75H358ZM374 74H377V75H374ZM382 74H387V75H382ZM414 74H427V75H414ZM442 74H455V75H442ZM115 75H128V76H115ZM182 75H194V76H182ZM249 75H261V76H249ZM309 75H322V76H309ZM351 75H355V76H351ZM358 75H360V76H358ZM374 75H376V76H374ZM384 75H387V76H384ZM414 75H427V76H414ZM442 75H455V76H442ZM115 76H128V77H115ZM188 76H194V77H188ZM255 76H261V77H255ZM316 76H322V77H316ZM351 76H353V77H351ZM385 76H387V77H385ZM414 76H421V77H414ZM442 76H455V77H442ZM115 77H167V78H115ZM188 77H215V78H188ZM255 77H297V78H255ZM316 77H332V78H316ZM350 77H353V78H350ZM382 77H384V78H382ZM385 77H421V78H385ZM442 77H469V78H442ZM479 77H494V78H479ZM115 78H167V79H115ZM188 78H217V79H188ZM255 78H292V79H255ZM316 78H332V79H316ZM348 78H353V79H348ZM374 78H421V79H374ZM442 78H468V79H442ZM480 78H494V79H480ZM115 79H167V80H115ZM188 79H217V80H188ZM255 79H292V80H255ZM316 79H333V80H316ZM348 79H353V80H348ZM374 79H421V80H374ZM442 79H468V80H442ZM480 79H494V80H480ZM115 80H137V81H115ZM155 80H167V81H155ZM188 80H220V81H188ZM255 80H284V81H255ZM316 80H333V81H316ZM348 80H353V81H348ZM374 80H389V81H374ZM407 80H421V81H407ZM442 80H463V81H442ZM482 80H494V81H482ZM115 81H137V82H115ZM155 81H167V82H155ZM188 81H220V82H188ZM255 81H284V82H255ZM316 81H333V82H316ZM348 81H353V82H348ZM374 81H389V82H374ZM407 81H421V82H407ZM442 81H463V82H442ZM482 81H494V82H482ZM115 82H137V83H115ZM160 82H167V83H160ZM188 82H220V83H188ZM255 82H284V83H255ZM316 82H333V83H316ZM346 82H354V83H346ZM374 82H389V83H374ZM407 82H421V83H407ZM442 82H461V83H442ZM482 82H494V83H482ZM115 83H127V84H115ZM160 83H167V84H160ZM194 83H220V84H194ZM261 83H277V84H261ZM323 83H333V84H323ZM346 83H347V84H346ZM374 83H379V84H374ZM413 83H414V84H413ZM442 83H458V84H442ZM482 83H493V84H482ZM115 84H127V85H115ZM160 84H167V85H160ZM194 84H220V85H194ZM261 84H277V85H261ZM323 84H334V85H323ZM346 84H347V85H346ZM374 84H379V85H374ZM413 84H414V85H413ZM442 84H458V85H442ZM483 84H493V85H483ZM115 85H119V86H115ZM160 85H165V86H160ZM194 85H220V86H194ZM261 85H269V86H261ZM323 85H336V86H323ZM344 85H347V86H344ZM412 85H414V86H412ZM442 85H456V86H442ZM485 85H493V86H485ZM115 86H119V87H115ZM158 86H165V87H158ZM194 86H220V87H194ZM261 86H269V87H261ZM323 86H336V87H323ZM344 86H347V87H344ZM410 86H414V87H410ZM442 86H456V87H442ZM485 86H494V87H485ZM115 87H119V88H115ZM158 87H165V88H158ZM194 87H220V88H194ZM261 87H269V88H261ZM323 87H336V88H323ZM342 87H347V88H342ZM410 87H414V88H410ZM442 87H456V88H442ZM486 87H494V88H486ZM150 88H167V89H150ZM194 88H215V89H194ZM323 88H336V89H323ZM342 88H347V89H342ZM402 88H414V89H402ZM442 88H456V89H442ZM486 88H494V89H486ZM150 89H167V90H150ZM194 89H215V90H194ZM323 89H347V90H323ZM402 89H414V90H402ZM442 89H456V90H442ZM486 89H494V90H486Z"/>
<path fill="#e4f2f8" d="M282 25H290V26H282ZM282 26H290V27H282ZM280 27H282V28H280ZM283 27H287V28H283ZM288 27H290V28H288ZM253 51H255V52H253ZM257 51H258V52H257ZM477 51H478V52H477ZM475 52H477V53H475ZM478 52H482V53H478ZM475 53H477V54H475ZM478 53H482V54H478ZM472 54H473V55H472ZM480 54H483V55H480ZM480 55H482V56H480ZM118 65H121V66H118ZM117 66H120V67H117ZM121 66H123V67H121ZM117 67H120V68H117ZM121 67H123V68H121ZM125 68H126V69H125ZM378 74H382V75H378ZM376 75H379V76H376ZM381 75H384V76H381ZM376 76H379V77H376ZM381 76H383V77H381ZM375 77H377V78H375ZM165 85H167V86H165ZM165 86H167V87H165ZM165 87H167V88H165ZM297 93H298V94H297ZM391 93H392V94H391ZM297 94H298V95H297ZM391 94H392V95H391ZM379 95H381V96H379ZM490 95H493V96H490ZM379 96H381V97H379ZM490 96H493V97H490ZM379 97H381V98H379ZM490 97H493V98H490ZM376 98H377V99H376ZM376 99H377V100H376Z"/>
<path fill="#6eb7da" d="M292 28H293V29H292ZM292 29H293V30H292ZM475 55H478V56H475ZM292 78H308V79H292ZM292 79H308V80H292ZM303 80H312V81H303ZM303 81H312V82H303ZM303 82H312V83H303ZM308 83H312V84H308ZM308 84H312V85H308ZM119 85H127V86H119ZM270 85H277V86H270ZM310 85H312V86H310ZM371 85H379V86H371ZM119 86H127V87H119ZM270 86H277V87H270ZM310 86H312V87H310ZM371 86H379V87H371ZM119 87H127V88H119ZM270 87H277V88H270ZM310 87H312V88H310ZM371 87H379V88H371ZM112 88H119V89H112ZM215 88H222V89H215ZM262 88H269V89H262ZM303 88H305V89H303ZM364 88H371V89H364ZM465 88H485V89H465ZM112 89H119V90H112ZM215 89H222V90H215ZM262 89H269V90H262ZM303 89H305V90H303ZM364 89H371V90H364ZM465 89H485V90H465ZM104 90H111V91H104ZM208 90H215V91H208ZM254 90H261V91H254ZM303 90H305V91H303ZM356 90H364V91H356ZM402 90H405V91H402ZM454 90H465V91H454ZM485 90H493V91H485ZM104 91H111V92H104ZM208 91H215V92H208ZM254 91H261V92H254ZM303 91H305V92H303ZM356 91H364V92H356ZM402 91H405V92H402ZM454 91H465V92H454ZM485 91H493V92H485ZM104 92H111V93H104ZM208 92H215V93H208ZM254 92H261V93H254ZM303 92H305V93H303ZM356 92H364V93H356ZM402 92H405V93H402ZM454 92H465V93H454ZM485 92H493V93H485ZM97 93H104V94H97ZM153 93H160V94H153ZM194 93H208V94H194ZM220 93H222V94H220ZM228 93H230V94H228ZM249 93H254V94H249ZM349 93H356V94H349ZM405 93H412V94H405ZM449 93H454V94H449ZM97 94H104V95H97ZM153 94H160V95H153ZM194 94H208V95H194ZM220 94H222V95H220ZM228 94H230V95H228ZM249 94H254V95H249ZM349 94H356V95H349ZM405 94H412V95H405ZM447 94H454V95H447ZM77 95H89V96H77ZM160 95H194V96H160ZM228 95H249V96H228ZM317 95H341V96H317ZM413 95H446V96H413ZM77 96H89V97H77ZM160 96H194V97H160ZM228 96H249V97H228ZM317 96H341V97H317ZM413 96H446V97H413ZM77 97H89V98H77ZM160 97H194V98H160ZM228 97H249V98H228ZM317 97H341V98H317ZM413 97H446V98H413Z"/>
<path fill="#008fff" d="M70 21H77V22H70ZM70 22H77V23H70ZM70 23H77V24H70ZM70 24H77V25H70ZM70 25H77V26H70ZM70 26H77V27H70ZM70 27H77V28H70ZM42 28H56V29H42ZM63 28H84V29H63ZM42 29H56V30H42ZM63 29H84V30H63ZM42 30H56V31H42ZM63 30H84V31H63ZM42 31H56V32H42ZM63 31H84V32H63ZM42 32H56V33H42ZM63 32H84V33H63ZM42 33H56V34H42ZM63 33H84V34H63ZM42 34H56V35H42ZM63 34H84V35H63ZM56 35H77V36H56ZM56 36H77V37H56ZM56 37H77V38H56ZM56 38H77V39H56ZM56 39H77V40H56ZM56 40H77V41H56ZM55 41H77V42H55ZM49 42H70V43H49ZM77 42H91V43H77ZM49 43H70V44H49ZM77 43H91V44H77ZM49 44H70V45H49ZM77 44H91V45H77ZM49 45H70V46H49ZM77 45H91V46H77ZM49 46H70V47H49ZM77 46H91V47H77ZM49 47H70V48H49ZM77 47H91V48H77ZM49 48H70V49H49ZM77 48H91V49H77ZM35 49H70V50H35ZM35 50H70V51H35ZM35 51H70V52H35ZM35 52H70V53H35ZM35 53H70V54H35ZM35 54H70V55H35ZM35 55H70V56H35ZM28 56H35V57H28ZM41 56H70V57H41ZM28 57H35V58H28ZM42 57H70V58H42ZM28 58H35V59H28ZM42 58H70V59H42ZM28 59H35V60H28ZM42 59H70V60H42ZM28 60H35V61H28ZM42 60H70V61H42ZM28 61H35V62H28ZM42 61H70V62H42ZM28 62H35V63H28ZM42 62H70V63H42ZM28 63H42V64H28ZM56 63H84V64H56ZM28 64H42V65H28ZM56 64H84V65H56ZM28 65H42V66H28ZM56 65H84V66H56ZM28 66H42V67H28ZM56 66H84V67H56ZM28 67H42V68H28ZM56 67H84V68H56ZM28 68H42V69H28ZM56 68H84V69H56ZM28 69H42V70H28ZM56 69H84V70H56ZM28 70H42V71H28ZM62 70H84V71H62ZM91 70H97V71H91ZM28 71H42V72H28ZM63 71H84V72H63ZM91 71H97V72H91ZM28 72H42V73H28ZM63 72H84V73H63ZM91 72H97V73H91ZM28 73H42V74H28ZM63 73H84V74H63ZM91 73H97V74H91ZM28 74H42V75H28ZM63 74H84V75H63ZM91 74H97V75H91ZM28 75H42V76H28ZM63 75H84V76H63ZM91 75H97V76H91ZM28 76H42V77H28ZM63 76H85V77H63ZM91 76H97V77H91ZM35 77H49V78H35ZM63 77H91V78H63ZM35 78H49V79H35ZM63 78H91V79H63ZM35 79H49V80H35ZM63 79H91V80H63ZM35 80H49V81H35ZM63 80H91V81H63ZM35 81H49V82H35ZM63 81H91V82H63ZM35 82H49V83H35ZM63 82H91V83H63ZM35 83H49V84H35ZM63 83H91V84H63ZM56 84H77V85H56ZM56 85H77V86H56ZM56 86H77V87H56ZM56 87H77V88H56ZM56 88H77V89H56ZM56 89H77V90H56ZM56 90H77V91H56Z"/>
<path fill="#5e9680" d="M336 21H337V22H336ZM336 22H337V23H336ZM210 23H211V24H210ZM475 23H476V24H475ZM210 24H211V25H210ZM263 24H265V25H263ZM326 24H331V25H326ZM476 24H477V25H476ZM208 25H209V26H208ZM218 25H219V26H218ZM476 25H477V26H476ZM126 26H128V27H126ZM140 26H141V27H140ZM208 26H209V27H208ZM218 26H219V27H218ZM208 27H209V28H208ZM218 27H219V28H218ZM35 28H42V29H35ZM210 28H211V29H210ZM218 28H219V29H218ZM317 28H319V29H317ZM41 29H42V30H41ZM143 29H146V30H143ZM210 29H211V30H210ZM218 29H219V30H218ZM317 29H319V30H317ZM41 30H42V31H41ZM41 31H42V32H41ZM41 32H42V33H41ZM322 32H323V33H322ZM41 33H42V34H41ZM146 33H148V34H146ZM475 33H477V34H475ZM41 34H42V35H41ZM42 35H56V36H42ZM77 35H84V36H77ZM224 35H225V36H224ZM349 35H350V36H349ZM354 35H355V36H354ZM55 36H56V37H55ZM349 36H351V37H349ZM354 36H355V37H354ZM381 36H382V37H381ZM55 37H56V38H55ZM317 37H318V38H317ZM354 37H355V38H354ZM382 37H383V38H382ZM55 38H56V39H55ZM317 38H318V39H317ZM55 39H56V40H55ZM317 39H318V40H317ZM356 39H357V40H356ZM55 40H56V41H55ZM317 40H318V41H317ZM356 40H357V41H356ZM317 41H322V42H317ZM356 41H357V42H356ZM48 42H49V43H48ZM48 43H49V44H48ZM48 44H49V45H48ZM317 44H318V45H317ZM48 45H49V46H48ZM48 46H49V47H48ZM48 47H49V48H48ZM356 47H357V48H356ZM358 47H359V48H358ZM382 47H383V48H382ZM48 48H49V49H48ZM356 48H357V49H356ZM359 48H361V49H359ZM382 48H384V49H382ZM452 48H455V49H452ZM34 49H35V50H34ZM136 49H138V50H136ZM189 49H191V50H189ZM192 49H193V50H192ZM349 49H350V50H349ZM34 50H35V51H34ZM189 50H191V51H189ZM192 50H193V51H192ZM34 51H35V52H34ZM189 51H191V52H189ZM192 51H193V52H192ZM463 51H464V52H463ZM34 52H35V53H34ZM126 52H127V53H126ZM138 52H141V53H138ZM348 52H349V53H348ZM453 52H454V53H453ZM34 53H35V54H34ZM126 53H127V54H126ZM34 54H35V55H34ZM464 54H465V55H464ZM34 55H35V56H34ZM358 55H361V56H358ZM376 55H377V56H376ZM376 56H377V57H376ZM41 57H42V58H41ZM351 57H353V58H351ZM466 57H467V58H466ZM41 58H42V59H41ZM466 58H467V59H466ZM41 59H42V60H41ZM224 59H225V60H224ZM41 60H42V61H41ZM314 60H316V61H314ZM378 60H379V61H378ZM447 60H448V61H447ZM464 60H467V61H464ZM41 61H42V62H41ZM136 61H137V62H136ZM41 62H42V63H41ZM380 62H383V63H380ZM447 64H448V65H447ZM351 67H353V68H351ZM249 69H251V70H249ZM90 70H91V71H90ZM90 71H91V72H90ZM453 71H455V72H453ZM90 72H91V73H90ZM453 72H455V73H453ZM90 73H91V74H90ZM90 74H91V75H90ZM357 74H358V75H357ZM90 75H91V76H90ZM90 76H91V77H90ZM355 76H358V77H355ZM215 77H216V78H215ZM472 77H473V78H472ZM472 78H473V79H472ZM479 78H480V79H479ZM472 79H473V80H472ZM479 79H480V80H479ZM474 80H475V81H474ZM346 81H347V82H346ZM353 81H354V82H353ZM474 81H475V82H474ZM456 86H457V87H456ZM456 87H457V88H456ZM336 88H342V89H336ZM456 88H457V89H456ZM456 89H457V90H456Z"/>
<path fill="#0e54a1" d="M298 83H303V84H298ZM298 84H303V85H298ZM289 85H298V86H289ZM289 86H298V87H289ZM289 87H298V88H289ZM134 88H139V89H134ZM284 88H294V89H284ZM386 88H391V89H386ZM134 89H139V90H134ZM284 89H294V90H284ZM386 89H391V90H386ZM119 90H134V91H119ZM274 90H289V91H274ZM374 90H386V91H374ZM119 91H134V92H119ZM274 91H289V92H274ZM374 91H386V92H374ZM119 92H134V93H119ZM274 92H289V93H274ZM374 92H386V93H374ZM112 93H129V94H112ZM267 93H274V94H267ZM277 93H287V94H277ZM364 93H381V94H364ZM112 94H129V95H112ZM267 94H274V95H267ZM277 94H287V95H277ZM364 94H381V95H364ZM104 95H114V96H104ZM117 95H126V96H117ZM212 95H215V96H212ZM259 95H269V96H259ZM272 95H274V96H272ZM277 95H287V96H277ZM356 95H366V96H356ZM370 95H379V96H370ZM465 95H471V96H465ZM475 95H480V96H475ZM104 96H114V97H104ZM117 96H126V97H117ZM212 96H215V97H212ZM259 96H269V97H259ZM272 96H287V97H272ZM356 96H366V97H356ZM370 96H379V97H370ZM465 96H471V97H465ZM473 96H480V97H473ZM104 97H114V98H104ZM117 97H126V98H117ZM212 97H215V98H212ZM259 97H269V98H259ZM272 97H287V98H272ZM356 97H366V98H356ZM370 97H379V98H370ZM465 97H471V98H465ZM473 97H480V98H473ZM97 98H124V99H97ZM127 98H137V99H127ZM194 98H220V99H194ZM254 98H294V99H254ZM349 98H376V99H349ZM379 98H389V99H379ZM454 98H495V99H454ZM97 99H124V100H97ZM127 99H137V100H127ZM194 99H220V100H194ZM254 99H294V100H254ZM349 99H376V100H349ZM379 99H389V100H379ZM454 99H495V100H454ZM97 100H124V101H97ZM127 100H137V101H127ZM194 100H220V101H194ZM254 100H294V101H254ZM349 100H376V101H349ZM379 100H389V101H379ZM454 100H495V101H454ZM77 101H498V102H77ZM77 102H498V103H77Z"/>
<path fill="#152542" d="M49 14H77V15H49ZM35 21H49V22H35ZM77 21H90V22H77ZM48 22H49V23H48ZM48 23H49V24H48ZM48 24H49V25H48ZM48 25H49V26H48ZM48 26H49V27H48ZM48 27H49V28H48ZM28 28H35V29H28ZM91 28H97V29H91ZM34 29H35V30H34ZM34 30H35V31H34ZM34 31H35V32H34ZM34 32H35V33H34ZM34 33H35V34H34ZM34 34H35V35H34ZM21 35H28V36H21ZM21 76H28V77H21ZM28 83H34V84H28ZM76 91H77V92H76ZM76 92H77V93H76ZM76 93H77V94H76ZM76 94H77V95H76ZM76 95H77V96H76ZM76 96H77V97H76Z"/>
<path fill="#3174a2" d="M293 26H295V27H293ZM293 28H294V29H293ZM293 29H294V30H293ZM376 57H377V58H376ZM116 66H117V67H116ZM116 67H117V68H116ZM269 85H270V86H269ZM484 85H485V86H484ZM269 86H270V87H269ZM269 87H270V88H269ZM145 93H146V94H145ZM307 93H308V94H307ZM472 93H473V94H472ZM475 93H476V94H475ZM487 93H488V94H487ZM490 93H491V94H490ZM145 94H146V95H145ZM307 94H308V95H307ZM472 94H473V95H472ZM475 94H476V95H475ZM487 94H488V95H487ZM490 94H491V95H490ZM139 95H145V96H139ZM148 95H149V96H148ZM300 95H301V96H300ZM308 95H317V96H308ZM381 95H382V96H381ZM391 95H398V96H391ZM488 95H490V96H488ZM148 96H149V97H148ZM297 96H298V97H297ZM300 96H301V97H300ZM381 96H382V97H381ZM397 96H398V97H397ZM148 97H149V98H148ZM297 97H298V98H297ZM300 97H301V98H300ZM381 97H382V98H381ZM397 97H398V98H397ZM498 101H499V102H498ZM498 102H499V103H498Z"/>
<path fill="#b6cfe1" d="M279 27H280V28H279ZM282 27H283V28H282ZM287 27H288V28H287ZM290 27H291V28H290ZM294 27H295V28H294ZM280 28H292V29H280ZM477 52H478V53H477ZM477 53H478V54H477ZM475 54H480V55H475ZM472 55H473V56H472ZM479 55H480V56H479ZM482 55H483V56H482ZM479 56H481V57H479ZM121 65H123V66H121ZM120 66H121V67H120ZM120 67H121V68H120ZM115 68H123V69H115ZM379 75H381V76H379ZM379 76H381V77H379ZM383 76H384V77H383ZM374 77H375V78H374ZM377 77H382V78H377ZM384 77H385V78H384ZM412 94H413V95H412Z"/>
<path fill="#f4fbfb" d="M252 52H253V53H252ZM252 53H253V54H252ZM153 80H155V81H153ZM399 80H405V81H399ZM153 81H155V82H153ZM399 81H405V82H399ZM153 82H155V83H153ZM399 82H405V83H399ZM153 83H160V84H153ZM405 83H412V84H405ZM153 84H160V85H153ZM405 84H412V85H405ZM155 85H157V86H155ZM407 85H410V86H407ZM155 86H157V87H155ZM407 86H410V87H407ZM113 87H114V88H113ZM155 87H157V88H155ZM407 87H410V88H407ZM139 93H145V94H139ZM274 93H277V94H274ZM292 93H297V94H292ZM392 93H397V94H392ZM473 93H475V94H473ZM488 93H490V94H488ZM139 94H145V95H139ZM274 94H277V95H274ZM292 94H297V95H292ZM392 94H397V95H392ZM473 94H475V95H473ZM488 94H490V95H488ZM115 95H117V96H115ZM127 95H129V96H127ZM146 95H148V96H146ZM270 95H272V96H270ZM298 95H300V96H298ZM367 95H369V96H367ZM398 95H400V96H398ZM115 96H117V97H115ZM127 96H129V97H127ZM146 96H148V97H146ZM270 96H272V97H270ZM298 96H300V97H298ZM367 96H369V97H367ZM398 96H400V97H398ZM115 97H117V98H115ZM127 97H129V98H127ZM146 97H148V98H146ZM270 97H272V98H270ZM298 97H300V98H298ZM367 97H369V98H367ZM398 97H400V98H398ZM124 98H127V99H124ZM377 98H379V99H377ZM124 99H127V100H124ZM377 99H379V100H377Z"/>
<path fill="#18526c" d="M326 21H327V22H326ZM481 21H482V22H481ZM481 22H482V23H481ZM265 23H266V24H265ZM330 25H331V26H330ZM146 28H147V29H146ZM118 29H121V30H118ZM146 29H147V30H146ZM150 29H153V30H150ZM211 29H214V30H211ZM324 29H327V30H324ZM149 30H150V31H149ZM214 30H215V31H214ZM322 30H323V31H322ZM468 30H469V31H468ZM214 31H215V32H214ZM468 31H469V32H468ZM214 32H215V33H214ZM468 32H469V33H468ZM141 33H142V34H141ZM156 33H157V34H156ZM377 33H378V34H377ZM468 33H469V34H468ZM377 34H378V35H377ZM231 35H232V36H231ZM358 35H359V36H358ZM377 35H378V36H377ZM184 36H185V37H184ZM226 36H227V37H226ZM317 36H322V37H317ZM358 36H359V37H358ZM377 36H378V37H377ZM226 37H227V38H226ZM358 37H359V38H358ZM378 37H379V38H378ZM380 39H381V40H380ZM380 40H381V41H380ZM380 41H384V42H380ZM185 42H186V43H185ZM355 45H357V46H355ZM414 45H419V46H414ZM187 46H188V47H187ZM121 47H123V48H121ZM187 47H188V48H187ZM380 47H382V48H380ZM420 47H421V48H420ZM187 48H188V49H187ZM189 48H191V49H189ZM312 48H314V49H312ZM380 48H382V49H380ZM420 48H421V49H420ZM347 49H348V50H347ZM384 50H387V51H384ZM125 52H126V53H125ZM189 52H191V53H189ZM349 52H350V53H349ZM384 52H385V53H384ZM423 52H424V53H423ZM444 52H445V53H444ZM349 53H350V54H349ZM384 53H387V54H384ZM349 54H350V55H349ZM135 55H136V56H135ZM350 55H351V56H350ZM133 57H134V58H133ZM139 57H140V58H139ZM146 57H147V58H146ZM450 57H451V58H450ZM453 57H455V58H453ZM465 57H466V58H465ZM139 58H140V59H139ZM146 58H147V59H146ZM150 60H152V61H150ZM225 60H228V61H225ZM448 60H450V61H448ZM231 62H232V63H231ZM355 64H357V65H355ZM445 64H446V65H445ZM451 66H452V67H451ZM248 67H249V68H248ZM451 67H452V68H451ZM249 68H250V69H249ZM449 70H450V71H449ZM353 76H354V77H353ZM469 77H470V78H469ZM332 78H333V79H332ZM347 78H348V79H347ZM481 80H482V81H481ZM481 81H482V82H481ZM481 82H482V83H481ZM333 83H334V84H333ZM481 83H482V84H481ZM493 83H494V84H493Z"/>
<path fill="#3796ce" d="M284 83H285V84H284ZM389 83H402V84H389ZM284 84H285V85H284ZM389 84H402V85H389ZM127 85H132V86H127ZM277 85H282V86H277ZM127 86H132V87H127ZM277 86H282V87H277ZM127 87H132V88H127ZM277 87H282V88H277ZM401 88H402V89H401ZM401 89H402V90H401ZM261 90H262V91H261ZM111 91H112V92H111ZM261 91H262V92H261ZM111 92H112V93H111ZM261 92H262V93H261ZM89 95H90V96H89ZM412 95H413V96H412ZM446 95H447V96H446ZM89 96H90V97H89ZM412 96H413V97H412ZM446 96H447V97H446ZM89 97H90V98H89ZM412 97H413V98H412ZM446 97H447V98H446Z"/>
<path fill="#2f6a6f" d="M161 21H162V22H161ZM214 21H215V22H214ZM161 22H162V23H161ZM214 22H215V23H214ZM341 23H342V24H341ZM341 24H342V25H341ZM160 26H162V27H160ZM329 26H334V27H329ZM475 26H477V27H475ZM139 27H140V28H139ZM161 27H162V28H161ZM320 28H321V29H320ZM320 29H321V30H320ZM327 29H328V30H327ZM320 30H321V31H320ZM153 31H154V32H153ZM321 31H324V32H321ZM462 31H463V32H462ZM185 35H186V36H185ZM382 35H384V36H382ZM185 36H186V37H185ZM225 36H226V37H225ZM382 36H384V37H382ZM383 38H384V39H383ZM186 45H188V46H186ZM382 49H383V50H382ZM422 49H423V50H422ZM451 49H452V50H451ZM456 49H457V50H456ZM123 50H124V51H123ZM350 50H351V51H350ZM358 50H361V51H358ZM382 50H383V51H382ZM422 50H423V51H422ZM382 51H383V52H382ZM422 51H423V52H422ZM134 52H135V53H134ZM221 52H222V53H221ZM134 53H135V54H134ZM221 53H222V54H221ZM134 54H135V55H134ZM134 55H135V56H134ZM349 55H350V56H349ZM465 55H466V56H465ZM134 57H135V58H134ZM377 57H378V58H377ZM134 58H135V59H134ZM151 61H152V62H151ZM379 61H380V62H379ZM357 62H358V63H357ZM379 62H380V63H379ZM231 63H232V64H231ZM448 69H450V70H448ZM249 73H250V74H249ZM249 74H250V75H249ZM356 74H357V75H356ZM349 77H350V78H349ZM217 79H220V80H217ZM347 79H348V80H347ZM347 80H348V81H347ZM347 81H348V82H347ZM334 83H335V84H334ZM461 83H462V84H461ZM334 84H335V85H334ZM483 85H484V86H483ZM493 85H494V86H493Z"/>
<path fill="#61b3dc" d="M137 80H152V81H137ZM284 80H292V81H284ZM389 80H399V81H389ZM405 80H407V81H405ZM137 81H152V82H137ZM284 81H292V82H284ZM389 81H399V82H389ZM405 81H407V82H405ZM137 82H152V83H137ZM284 82H292V83H284ZM389 82H399V83H389ZM405 82H407V83H405ZM127 83H137V84H127ZM150 83H152V84H150ZM277 83H284V84H277ZM379 83H389V84H379ZM402 83H405V84H402ZM127 84H137V85H127ZM150 84H152V85H150ZM277 84H284V85H277ZM379 84H389V85H379ZM402 84H405V85H402ZM379 85H384V86H379ZM379 86H384V87H379ZM379 87H384V88H379ZM148 88H150V89H148ZM269 88H270V89H269ZM148 89H150V90H148ZM269 89H270V90H269ZM111 90H112V91H111ZM150 90H153V91H150ZM150 91H152V92H150ZM150 92H152V93H150ZM471 95H473V96H471ZM471 96H473V97H471ZM471 97H473V98H471Z"/>
<path fill="#6f9cbb" d="M476 23H477V24H476ZM278 26H282V27H278ZM290 26H292V27H290ZM293 27H294V28H293ZM255 50H257V51H255ZM478 56H479V57H478ZM115 69H123V70H115ZM125 69H126V70H125ZM377 74H378V75H377ZM152 80H153V81H152ZM312 80H313V81H312ZM152 81H153V82H152ZM312 81H313V82H312ZM152 82H153V83H152ZM312 82H313V83H312ZM152 83H153V84H152ZM312 83H313V84H312ZM152 84H153V85H152ZM312 84H313V85H312ZM312 85H313V86H312ZM312 86H313V87H312ZM312 87H313V88H312Z"/>
<path fill="#175492" d="M334 21H336V22H334ZM473 21H481V22H473ZM485 21H494V22H485ZM334 22H336V23H334ZM473 22H481V23H473ZM485 22H494V23H485ZM334 23H341V24H334ZM473 23H475V24H473ZM477 23H494V24H477ZM334 24H341V25H334ZM473 24H475V25H473ZM477 24H494V25H477ZM334 25H338V26H334ZM473 25H475V26H473ZM477 25H494V26H477ZM334 26H336V27H334ZM473 26H475V27H473ZM477 26H494V27H477ZM331 27H336V28H331ZM473 27H494V28H473ZM472 28H494V29H472ZM472 29H494V30H472ZM323 30H324V31H323ZM469 30H475V31H469ZM478 30H494V31H478ZM469 31H475V32H469ZM478 31H494V32H478ZM469 32H494V33H469ZM378 33H382V34H378ZM469 33H475V34H469ZM477 33H494V34H477ZM378 34H382V35H378ZM348 35H349V36H348ZM355 35H358V36H355ZM378 35H381V36H378ZM348 36H349V37H348ZM355 36H358V37H355ZM378 36H381V37H378ZM348 37H351V38H348ZM355 37H358V38H355ZM379 37H382V38H379ZM357 38H360V39H357ZM380 38H382V39H380ZM357 39H360V40H357ZM381 39H384V40H381ZM357 40H360V41H357ZM381 40H384V41H381ZM357 41H360V42H357ZM355 46H357V47H355ZM357 47H358V48H357ZM357 48H358V49H357ZM348 49H349V50H348ZM358 49H360V50H358ZM383 49H384V50H383ZM452 49H455V50H452ZM457 49H483V50H457ZM348 50H349V51H348ZM383 50H384V51H383ZM453 50H462V51H453ZM464 50H483V51H464ZM348 51H351V52H348ZM383 51H387V52H383ZM453 51H462V52H453ZM464 51H476V52H464ZM480 51H483V52H480ZM350 52H351V53H350ZM385 52H387V53H385ZM455 52H462V53H455ZM464 52H473V53H464ZM482 52H483V53H482ZM350 53H351V54H350ZM455 53H462V54H455ZM464 53H473V54H464ZM482 53H483V54H482ZM350 54H353V55H350ZM455 54H462V55H455ZM465 54H471V55H465ZM474 54H475V55H474ZM351 55H353V56H351ZM455 55H462V56H455ZM466 55H472V56H466ZM474 55H475V56H474ZM351 56H353V57H351ZM448 56H450V57H448ZM455 56H465V57H455ZM466 56H478V57H466ZM482 56H483V57H482ZM448 57H450V58H448ZM455 57H465V58H455ZM467 57H483V58H467ZM448 58H451V59H448ZM453 58H466V59H453ZM467 58H483V59H467ZM448 59H464V60H448ZM467 59H483V60H467ZM450 60H464V61H450ZM467 60H483V61H467ZM450 61H459V62H450ZM462 61H483V62H462ZM451 62H455V63H451ZM451 63H455V64H451ZM450 64H455V65H450ZM450 65H455V66H450ZM452 66H455V67H452ZM452 67H455V68H452ZM453 68H455V69H453ZM453 69H455V70H453ZM453 70H455V71H453ZM473 77H477V78H473ZM473 78H477V79H473ZM473 79H477V80H473ZM475 80H477V81H475ZM475 81H477V82H475Z"/>
<path fill="#5c955a" d="M194 21H214V22H194ZM261 21H267V22H261ZM328 21H334V22H328ZM337 21H347V22H337ZM374 21H414V22H374ZM441 21H470V22H441ZM482 21H485V22H482ZM194 22H214V23H194ZM261 22H267V23H261ZM326 22H334V23H326ZM337 22H347V23H337ZM374 22H414V23H374ZM441 22H473V23H441ZM482 22H485V23H482ZM194 23H210V24H194ZM263 23H265V24H263ZM326 23H334V24H326ZM342 23H347V24H342ZM374 23H414V24H374ZM441 23H473V24H441ZM194 24H210V25H194ZM331 24H334V25H331ZM342 24H347V25H342ZM374 24H414V25H374ZM441 24H473V25H441ZM194 25H208V26H194ZM219 25H221V26H219ZM331 25H334V26H331ZM339 25H347V26H339ZM374 25H414V26H374ZM441 25H473V26H441ZM194 26H208V27H194ZM219 26H221V27H219ZM338 26H347V27H338ZM374 26H414V27H374ZM441 26H473V27H441ZM194 27H208V28H194ZM219 27H221V28H219ZM329 27H331V28H329ZM336 27H347V28H336ZM374 27H414V28H374ZM441 27H473V28H441ZM188 28H210V29H188ZM219 28H228V29H219ZM328 28H354V29H328ZM374 28H421V29H374ZM441 28H471V29H441ZM188 29H210V30H188ZM219 29H228V30H219ZM328 29H354V30H328ZM374 29H421V30H374ZM441 29H471V30H441ZM150 30H153V31H150ZM188 30H214V31H188ZM216 30H228V31H216ZM324 30H354V31H324ZM374 30H421V31H374ZM441 30H468V31H441ZM475 30H478V31H475ZM150 31H153V32H150ZM188 31H214V32H188ZM216 31H228V32H216ZM324 31H354V32H324ZM374 31H421V32H374ZM441 31H462V32H441ZM463 31H468V32H463ZM148 32H155V33H148ZM188 32H214V33H188ZM216 32H228V33H216ZM323 32H354V33H323ZM374 32H421V33H374ZM441 32H462V33H441ZM463 32H468V33H463ZM148 33H156V34H148ZM188 33H223V34H188ZM321 33H354V34H321ZM374 33H377V34H374ZM383 33H421V34H383ZM441 33H462V34H441ZM466 33H468V34H466ZM188 34H194V35H188ZM221 34H223V35H221ZM321 34H322V35H321ZM347 34H354V35H347ZM374 34H377V35H374ZM383 34H387V35H383ZM414 34H421V35H414ZM441 34H455V35H441ZM186 35H194V36H186ZM221 35H224V36H221ZM350 35H354V36H350ZM359 35H361V36H359ZM374 35H377V36H374ZM384 35H387V36H384ZM414 35H428V36H414ZM441 35H455V36H441ZM186 36H194V37H186ZM221 36H225V37H221ZM351 36H354V37H351ZM359 36H361V37H359ZM374 36H377V37H374ZM384 36H387V37H384ZM414 36H428V37H414ZM441 36H455V37H441ZM184 37H194V38H184ZM221 37H226V38H221ZM318 37H322V38H318ZM351 37H354V38H351ZM359 37H361V38H359ZM374 37H378V38H374ZM383 37H387V38H383ZM414 37H428V38H414ZM441 37H455V38H441ZM184 38H194V39H184ZM318 38H322V39H318ZM351 38H355V39H351ZM360 38H361V39H360ZM374 38H378V39H374ZM384 38H387V39H384ZM414 38H428V39H414ZM441 38H455V39H441ZM184 39H194V40H184ZM318 39H322V40H318ZM347 39H356V40H347ZM360 39H361V40H360ZM374 39H380V40H374ZM384 39H387V40H384ZM414 39H428V40H414ZM441 39H455V40H441ZM184 40H194V41H184ZM318 40H322V41H318ZM347 40H356V41H347ZM360 40H361V41H360ZM374 40H380V41H374ZM384 40H387V41H384ZM414 40H428V41H414ZM441 40H455V41H441ZM184 41H194V42H184ZM347 41H356V42H347ZM360 41H361V42H360ZM374 41H380V42H374ZM384 41H387V42H384ZM414 41H428V42H414ZM441 41H455V42H441ZM186 42H194V43H186ZM347 42H361V43H347ZM374 42H387V43H374ZM414 42H428V43H414ZM441 42H455V43H441ZM186 43H194V44H186ZM347 43H361V44H347ZM374 43H387V44H374ZM414 43H428V44H414ZM441 43H455V44H441ZM186 44H194V45H186ZM318 44H322V45H318ZM347 44H361V45H347ZM374 44H387V45H374ZM414 44H428V45H414ZM441 44H455V45H441ZM188 45H194V46H188ZM316 45H322V46H316ZM347 45H355V46H347ZM357 45H361V46H357ZM374 45H387V46H374ZM419 45H428V46H419ZM441 45H455V46H441ZM188 46H194V47H188ZM316 46H322V47H316ZM347 46H355V47H347ZM357 46H361V47H357ZM374 46H387V47H374ZM419 46H428V47H419ZM441 46H455V47H441ZM188 47H189V48H188ZM191 47H194V48H191ZM314 47H322V48H314ZM347 47H356V48H347ZM359 47H361V48H359ZM374 47H380V48H374ZM383 47H387V48H383ZM421 47H428V48H421ZM441 47H455V48H441ZM188 48H189V49H188ZM191 48H194V49H191ZM314 48H322V49H314ZM347 48H356V49H347ZM374 48H380V49H374ZM384 48H387V49H384ZM421 48H428V49H421ZM441 48H452V49H441ZM193 49H194V50H193ZM312 49H322V50H312ZM350 49H358V50H350ZM374 49H382V50H374ZM384 49H387V50H384ZM423 49H428V50H423ZM443 49H451V50H443ZM193 50H194V51H193ZM312 50H322V51H312ZM351 50H358V51H351ZM374 50H382V51H374ZM423 50H428V51H423ZM443 50H453V51H443ZM193 51H194V52H193ZM312 51H322V52H312ZM351 51H361V52H351ZM374 51H382V52H374ZM423 51H428V52H423ZM443 51H453V52H443ZM462 51H463V52H462ZM312 52H322V53H312ZM347 52H348V53H347ZM351 52H361V53H351ZM374 52H384V53H374ZM424 52H428V53H424ZM445 52H453V53H445ZM454 52H455V53H454ZM462 52H463V53H462ZM312 53H322V54H312ZM347 53H349V54H347ZM351 53H361V54H351ZM374 53H384V54H374ZM424 53H428V54H424ZM445 53H455V54H445ZM462 53H463V54H462ZM312 54H322V55H312ZM347 54H349V55H347ZM353 54H361V55H353ZM375 54H387V55H375ZM424 54H428V55H424ZM447 54H455V55H447ZM462 54H464V55H462ZM312 55H322V56H312ZM347 55H349V56H347ZM353 55H358V56H353ZM377 55H387V56H377ZM425 55H428V56H425ZM447 55H448V56H447ZM450 55H455V56H450ZM312 56H322V57H312ZM347 56H351V57H347ZM353 56H358V57H353ZM377 56H387V57H377ZM425 56H428V57H425ZM447 56H448V57H447ZM450 56H455V57H450ZM465 56H466V57H465ZM312 57H322V58H312ZM347 57H351V58H347ZM378 57H387V58H378ZM425 57H428V58H425ZM447 57H448V58H447ZM451 57H453V58H451ZM140 58H146V59H140ZM312 58H322V59H312ZM347 58H353V59H347ZM378 58H387V59H378ZM425 58H428V59H425ZM447 58H448V59H447ZM451 58H453V59H451ZM138 59H150V60H138ZM221 59H224V60H221ZM314 59H322V60H314ZM347 59H358V60H347ZM378 59H387V60H378ZM427 59H428V60H427ZM447 59H448V60H447ZM138 60H150V61H138ZM221 60H225V61H221ZM316 60H322V61H316ZM347 60H358V61H347ZM379 60H387V61H379ZM427 60H428V61H427ZM137 61H151V62H137ZM221 61H228V62H221ZM316 61H322V62H316ZM347 61H358V62H347ZM380 61H384V62H380ZM221 62H228V63H221ZM347 62H357V63H347ZM221 63H231V64H221ZM347 63H357V64H347ZM221 64H231V65H221ZM347 64H354V65H347ZM221 65H233V66H221ZM347 65H354V66H347ZM221 66H233V67H221ZM347 66H353V67H347ZM221 67H233V68H221ZM347 67H351V68H347ZM221 68H233V69H221ZM347 68H351V69H347ZM221 69H233V70H221ZM347 69H351V70H347ZM221 70H233V71H221ZM347 70H351V71H347ZM221 71H233V72H221ZM347 71H351V72H347ZM221 72H233V73H221ZM347 72H351V73H347ZM221 73H233V74H221ZM347 73H351V74H347ZM221 74H233V75H221ZM347 74H351V75H347ZM221 75H233V76H221ZM347 75H351V76H347ZM221 76H227V77H221ZM347 76H349V77H347ZM216 77H227V78H216ZM332 77H349V78H332ZM470 77H472V78H470ZM477 77H479V78H477ZM217 78H227V79H217ZM333 78H347V79H333ZM468 78H472V79H468ZM477 78H479V79H477ZM220 79H227V80H220ZM333 79H347V80H333ZM468 79H472V80H468ZM477 79H479V80H477ZM220 80H227V81H220ZM333 80H347V81H333ZM463 80H474V81H463ZM477 80H481V81H477ZM220 81H227V82H220ZM333 81H346V82H333ZM463 81H474V82H463ZM477 81H481V82H477ZM220 82H227V83H220ZM333 82H346V83H333ZM462 82H481V83H462ZM220 83H221V84H220ZM335 83H346V84H335ZM462 83H481V84H462ZM220 84H221V85H220ZM335 84H346V85H335ZM458 84H483V85H458ZM220 85H221V86H220ZM336 85H344V86H336ZM458 85H483V86H458ZM220 86H221V87H220ZM336 86H344V87H336ZM457 86H485V87H457ZM220 87H221V88H220ZM336 87H342V88H336ZM457 87H485V88H457ZM457 88H465V89H457ZM457 89H465V90H457Z"/>
<path fill="#134477" d="M216 29H218V30H216ZM153 30H154V31H153ZM462 32H463V33H462ZM462 33H466V34H462ZM360 49H361V50H360ZM443 52H444V53H443ZM221 54H222V55H221ZM471 54H472V55H471ZM473 54H474V55H473ZM221 55H222V56H221ZM473 55H474V56H473ZM221 56H222V57H221ZM360 56H361V57H360ZM221 57H222V58H221ZM360 57H361V58H360ZM221 58H222V59H221ZM360 58H361V59H360ZM360 59H361V60H360ZM360 60H361V61H360ZM360 61H361V62H360ZM427 61H428V62H427ZM360 62H361V63H360ZM427 62H428V63H427ZM360 63H361V64H360ZM427 63H428V64H427ZM118 64H123V65H118ZM360 64H361V65H360ZM427 64H428V65H427ZM360 65H361V66H360ZM427 65H428V66H427ZM360 66H361V67H360ZM427 66H428V67H427ZM360 67H361V68H360ZM427 67H428V68H427ZM360 68H361V69H360ZM427 68H428V69H427ZM251 69H252V70H251ZM360 69H361V70H360ZM427 69H428V70H427ZM251 70H252V71H251ZM360 70H361V71H360ZM427 70H428V71H427ZM251 71H252V72H251ZM360 71H361V72H360ZM427 71H428V72H427ZM251 72H252V73H251ZM360 72H361V73H360ZM427 72H428V73H427ZM360 73H361V74H360ZM427 73H428V74H427ZM360 74H361V75H360ZM427 74H428V75H427ZM360 75H361V76H360ZM427 75H428V76H427ZM374 76H376V77H374ZM384 76H385V77H384ZM155 82H160V83H155ZM458 83H461V84H458ZM158 85H160V86H158ZM410 85H412V86H410ZM114 95H115V96H114ZM126 95H127V96H126ZM274 95H277V96H274ZM366 95H367V96H366ZM369 95H370V96H369ZM473 95H475V96H473ZM114 96H115V97H114ZM126 96H127V97H126ZM366 96H367V97H366ZM369 96H370V97H369ZM114 97H115V98H114ZM126 97H127V98H126ZM366 97H367V98H366ZM369 97H370V98H369Z"/>
<path fill="#97c9e6" d="M253 50H255V51H253ZM257 50H258V51H257ZM478 51H480V52H478ZM473 52H475V53H473ZM473 53H475V54H473ZM478 55H479V56H478ZM137 95H139V96H137ZM389 95H391V96H389ZM137 96H139V97H137ZM389 96H391V97H389ZM137 97H139V98H137ZM389 97H391V98H389ZM124 100H127V101H124ZM376 100H379V101H376Z"/>
<path fill="#2f5b82" d="M267 21H269V22H267ZM139 26H140V27H139ZM327 28H328V29H327ZM320 33H321V34H320ZM320 34H321V35H320ZM347 35H348V36H347ZM347 36H348V37H347ZM347 37H348V38H347ZM382 38H383V39H382ZM441 49H442V50H441ZM349 50H350V51H349ZM441 50H442V51H441ZM462 50H464V51H462ZM124 51H125V52H124ZM441 51H442V52H441ZM441 52H442V53H441ZM441 53H442V54H441ZM441 54H442V55H441ZM441 55H442V56H441ZM441 56H442V57H441ZM441 57H442V58H441ZM441 58H442V59H441ZM441 59H442V60H441ZM441 60H442V61H441ZM441 61H442V62H441ZM383 62H384V63H383ZM441 62H442V63H441ZM441 63H442V64H441ZM441 64H442V65H441ZM441 65H442V66H441ZM441 66H442V67H441ZM441 67H442V68H441ZM441 68H442V69H441ZM441 69H442V70H441ZM441 70H442V71H441ZM441 71H442V72H441ZM441 72H442V73H441ZM441 73H442V74H441ZM441 74H442V75H441ZM441 75H442V76H441ZM309 76H316V77H309ZM350 76H351V77H350ZM358 76H361V77H358ZM441 76H442V77H441ZM441 77H442V78H441ZM441 78H442V79H441ZM441 79H442V80H441ZM441 80H442V81H441ZM441 81H442V82H441ZM441 82H442V83H441ZM412 83H413V84H412ZM441 83H442V84H441ZM412 84H413V85H412ZM441 84H442V85H441ZM441 85H442V86H441ZM441 86H442V87H441ZM441 87H442V88H441ZM261 88H262V89H261ZM441 88H442V89H441ZM261 89H262V90H261ZM441 89H442V90H441ZM269 95H270V96H269ZM297 95H298V96H297ZM269 96H270V97H269ZM269 97H270V98H269Z"/>
<path fill="#478280" d="M327 21H328V22H327ZM470 21H473V22H470ZM281 25H282V26H281ZM338 25H339V26H338ZM336 26H338V27H336ZM471 28H472V29H471ZM471 29H472V30H471ZM116 31H118V32H116ZM148 31H150V32H148ZM154 31H155V32H154ZM475 31H478V32H475ZM119 33H120V34H119ZM124 33H125V34H124ZM382 33H383V34H382ZM119 34H120V35H119ZM124 34H125V35H124ZM382 34H383V35H382ZM124 35H125V36H124ZM124 36H125V37H124ZM124 37H125V38H124ZM124 38H125V39H124ZM347 38H351V39H347ZM355 38H357V39H355ZM378 38H380V39H378ZM124 39H125V40H124ZM317 43H322V44H317ZM358 48H359V49H358ZM124 50H125V51H124ZM136 50H138V51H136ZM347 50H348V51H347ZM347 51H348V52H347ZM463 52H464V53H463ZM463 53H464V54H463ZM374 54H375V55H374ZM446 54H447V55H446ZM424 55H425V56H424ZM446 55H447V56H446ZM448 55H450V56H448ZM462 55H465V56H462ZM446 56H447V57H446ZM140 57H146V58H140ZM446 57H447V58H446ZM446 58H447V59H446ZM446 59H447V60H446ZM446 60H447V61H446ZM461 61H462V62H461ZM228 62H231V63H228ZM316 62H322V63H316ZM445 62H446V63H445ZM450 62H451V63H450ZM231 64H233V65H231ZM354 64H355V65H354ZM446 64H447V65H446ZM354 65H355V66H354ZM446 65H447V66H446ZM446 66H447V67H446ZM446 67H447V68H446ZM452 68H453V69H452ZM452 69H453V70H452ZM452 70H453V71H452ZM354 76H355V77H354ZM461 82H462V83H461ZM157 85H158V86H157ZM456 85H458V86H456ZM157 86H158V87H157ZM157 87H158V88H157ZM485 87H486V88H485ZM485 88H486V89H485ZM485 89H486V90H485Z"/>
<path fill="#bcdff3" d="M283 23H287V24H283ZM283 24H287V25H283ZM278 27H279V28H278ZM291 27H292V28H291ZM280 29H292V30H280ZM255 51H257V52H255ZM253 52H257V53H253ZM253 53H257V54H253ZM481 56H482V57H481ZM123 66H125V67H123ZM123 67H125V68H123ZM114 87H115V88H114ZM111 88H112V89H111ZM111 89H112V90H111ZM397 93H398V94H397ZM230 94H231V95H230ZM397 94H398V95H397ZM145 95H146V96H145ZM400 95H401V96H400ZM145 96H146V97H145ZM400 96H401V97H400ZM145 97H146V98H145ZM400 97H401V98H400Z"/>
</svg>